{"glyphs":{"0":{"ha":822,"x_min":88,"x_max":735,"o":"m 411 625 q 535 600 476 625 q 640 530 594 575 q 710 426 685 485 q 735 301 735 367 q 710 176 735 236 q 640 72 685 117 q 535 1 594 26 q 411 -24 476 -24 q 287 1 346 -24 q 183 72 228 26 q 113 176 138 117 q 88 301 88 236 q 113 426 88 367 q 183 530 138 485 q 287 600 228 575 q 411 625 346 625 m 411 546 q 321 527 364 546 q 245 474 278 508 q 194 396 213 440 q 176 301 176 351 q 194 207 176 251 q 245 128 213 163 q 321 76 278 94 q 411 57 364 57 q 501 76 458 57 q 576 128 543 94 q 628 207 610 163 q 646 301 646 251 q 628 394 646 350 q 576 474 610 439 q 501 527 543 508 q 411 546 458 546 "},"1":{"ha":504,"x_min":69,"x_max":435,"o":"m 435 0 l 69 0 l 69 29 q 140 35 115 29 q 179 58 165 42 q 198 106 193 75 q 203 192 203 138 l 203 411 q 198 497 203 465 q 179 544 193 528 q 140 567 165 561 q 69 574 115 574 l 69 601 l 435 601 l 435 574 q 363 567 389 574 q 324 544 338 561 q 306 497 311 528 q 301 411 301 467 l 301 192 q 306 106 301 136 q 324 58 311 75 q 363 35 338 42 q 435 29 389 29 l 435 0 "},"2":{"ha":722,"x_min":85,"x_max":615,"o":"m 469 244 l 256 81 l 615 81 l 581 -110 l 551 -110 q 545 -53 551 -74 q 522 -21 539 -32 q 474 -5 506 -10 q 389 0 443 0 l 103 0 l 103 33 l 349 226 q 452 338 422 285 q 482 438 482 392 q 441 532 482 497 q 332 567 400 567 q 232 529 275 567 q 189 436 189 492 q 213 358 189 399 l 171 315 q 106 376 128 342 q 85 449 85 411 q 152 572 85 519 q 332 625 219 625 q 431 612 383 625 q 517 574 479 599 q 576 515 554 550 q 597 439 597 481 q 579 366 597 401 q 538 305 561 331 q 496 265 514 279 q 469 244 478 250 "},"3":{"ha":706,"x_min":85,"x_max":622,"o":"m 358 160 q 331 132 349 151 q 305 105 315 114 q 282 96 294 96 q 262 105 271 96 q 253 128 253 114 q 289 179 253 153 l 392 261 q 458 340 432 292 q 483 439 483 388 q 442 532 483 497 q 332 567 400 567 q 235 530 281 567 q 189 438 189 493 q 213 358 189 399 l 171 315 q 106 376 128 342 q 85 449 85 411 q 152 572 85 519 q 332 625 219 625 q 431 612 383 625 q 517 574 479 599 q 576 515 554 550 q 597 439 597 481 q 579 366 597 401 q 538 305 561 331 q 496 265 514 279 q 469 244 478 250 l 406 196 q 564 114 506 175 q 622 -28 622 53 q 601 -117 622 -75 q 542 -191 581 -158 q 453 -242 504 -224 q 346 -260 403 -260 q 239 -244 288 -260 q 157 -203 190 -228 q 106 -151 124 -178 q 89 -103 89 -124 q 125 -71 89 -71 q 147 -81 138 -71 q 168 -110 156 -90 q 199 -153 186 -140 q 253 -192 221 -176 q 335 -207 285 -207 q 458 -158 417 -207 q 499 -28 499 -108 q 465 92 499 39 q 358 160 431 144 "},"4":{"ha":750,"x_min":50,"x_max":675,"o":"m 463 683 l 463 108 l 478 108 q 595 131 567 108 q 639 214 624 153 l 646 242 l 675 242 l 664 58 q 463 58 574 58 l 463 -46 q 467 -131 463 -100 q 486 -178 472 -162 q 525 -201 500 -194 q 596 -207 550 -207 l 596 -236 l 232 -236 l 232 -207 q 303 -201 278 -207 q 342 -178 328 -194 q 360 -131 356 -162 q 365 -46 365 -100 l 365 58 l 50 58 l 50 85 l 438 683 l 463 683 m 365 108 l 365 479 l 125 108 l 365 108 "},"5":{"ha":685,"x_min":90,"x_max":597,"o":"m 174 258 q 240 303 196 286 q 329 319 285 319 q 437 297 388 319 q 522 235 486 275 q 578 143 558 196 q 597 31 597 90 q 576 -81 597 -28 q 515 -175 554 -135 q 425 -237 476 -215 q 317 -260 374 -260 q 222 -244 265 -260 q 150 -206 179 -229 q 106 -156 121 -182 q 90 -108 90 -129 q 129 -71 90 -71 q 152 -81 143 -71 q 172 -114 161 -92 q 225 -182 196 -157 q 317 -207 254 -207 q 440 -141 399 -207 q 482 31 482 -75 q 441 198 482 135 q 317 261 400 261 q 214 230 256 261 q 161 125 172 199 l 110 125 l 153 601 l 388 601 q 505 623 476 601 q 549 707 533 644 l 581 707 l 546 504 l 194 504 l 174 258 "},"6":{"ha":729,"x_min":88,"x_max":649,"o":"m 201 339 q 222 181 204 243 q 266 87 240 119 q 318 43 292 54 q 368 32 344 32 q 444 49 413 32 q 496 96 476 67 q 524 162 515 125 q 533 239 533 199 q 524 315 533 279 q 496 379 515 350 q 444 425 476 408 q 368 442 413 442 q 260 413 307 442 q 201 339 214 383 m 203 415 q 272 475 231 453 q 368 497 313 497 q 476 477 425 497 q 567 421 528 457 q 627 338 606 385 q 649 238 649 290 q 626 137 649 185 q 566 53 604 89 q 476 -3 528 17 q 368 -24 425 -24 q 275 -6 322 -24 q 185 55 228 11 q 115 177 142 99 q 88 369 88 256 q 108 549 88 461 q 168 707 128 636 q 269 819 208 778 q 407 861 329 861 q 550 826 489 861 q 611 756 611 792 q 599 729 611 739 q 574 719 588 719 q 553 727 563 719 q 528 753 543 735 q 475 799 501 782 q 407 817 449 817 q 313 783 351 817 q 252 692 275 749 q 218 566 229 636 q 203 415 207 496 "},"7":{"ha":654,"x_min":85,"x_max":581,"o":"m 581 614 l 581 575 l 275 -192 q 249 -243 261 -226 q 215 -260 236 -260 q 200 -257 208 -260 q 178 -242 188 -254 q 168 -211 168 -229 q 178 -174 168 -194 l 508 515 l 282 515 q 165 494 193 515 q 121 410 136 472 l 114 382 l 85 382 l 143 724 l 171 724 q 177 666 171 686 q 200 634 183 646 q 247 618 217 622 q 333 614 278 614 l 581 614 "},"8":{"ha":733,"x_min":88,"x_max":647,"o":"m 379 497 q 459 574 431 525 q 488 679 488 622 q 458 765 488 726 q 367 803 428 803 q 276 765 306 803 q 247 679 247 728 q 281 575 247 617 q 379 497 314 533 m 335 431 q 235 338 271 394 q 199 208 199 282 q 242 84 199 138 q 367 31 286 31 q 491 83 447 31 q 535 197 535 135 q 484 324 535 274 q 335 431 433 375 m 422 475 l 425 474 q 515 425 481 446 q 580 376 550 404 q 628 309 610 349 q 647 219 647 269 q 626 124 647 168 q 565 46 604 79 q 475 -6 526 13 q 367 -24 424 -24 q 259 -6 310 -24 q 169 44 208 13 q 109 119 131 76 q 88 208 88 161 q 104 299 88 260 q 149 367 121 339 q 212 417 176 396 q 290 456 247 438 q 175 547 215 501 q 135 657 135 593 q 203 800 135 743 q 278 842 236 828 q 367 857 319 857 q 456 842 414 857 q 531 801 499 828 q 582 740 564 775 q 600 668 600 706 q 553 558 600 601 q 422 475 506 514 "},"9":{"ha":729,"x_min":81,"x_max":643,"o":"m 643 233 q 623 55 643 143 q 563 -105 603 -33 q 462 -218 522 -176 q 324 -260 401 -260 q 245 -250 283 -260 q 178 -224 207 -240 q 134 -190 150 -208 q 118 -154 118 -171 q 131 -127 118 -137 q 157 -117 143 -117 q 201 -149 174 -117 q 255 -197 229 -181 q 322 -214 281 -214 q 416 -181 378 -214 q 477 -91 454 -147 q 512 35 500 -35 q 526 186 524 106 q 458 126 499 149 q 361 104 417 104 q 253 124 304 104 q 163 181 201 144 q 103 265 125 217 q 81 365 81 313 q 103 465 81 418 q 163 549 125 513 q 253 605 201 585 q 361 625 304 625 q 454 608 407 625 q 545 547 501 590 q 616 425 589 503 q 643 233 643 347 m 528 263 q 507 420 525 358 q 463 515 489 482 q 411 558 438 547 q 361 569 385 569 q 285 552 317 569 q 233 506 253 535 q 205 440 214 476 q 196 364 196 404 q 205 288 196 324 q 233 224 214 251 q 361 160 276 160 q 469 190 422 160 q 528 263 515 219 "}," ":{"ha":324,"x_min":0,"x_max":0,"o":""},"!":{"ha":435,"x_min":138,"x_max":269,"o":"m 269 56 q 250 8 269 28 q 203 -11 231 -11 q 157 9 176 -11 q 138 56 138 29 q 157 103 138 83 q 203 122 176 122 q 250 103 231 122 q 269 56 269 83 m 138 789 q 157 837 138 817 q 203 857 176 857 q 249 837 229 857 q 269 789 269 817 q 260 689 269 760 q 240 492 249 594 q 226 222 231 389 l 179 222 q 167 492 175 392 q 146 688 158 592 q 138 789 138 760 "},"\"":{"ha":572,"x_min":104,"x_max":468,"o":"m 104 789 q 124 837 104 817 q 169 857 143 857 q 216 837 196 857 q 236 789 236 817 q 222 739 236 776 q 196 652 207 696 q 181 546 185 608 l 157 546 q 142 652 153 610 q 117 739 132 694 q 104 789 104 776 m 336 789 q 355 837 336 817 q 400 857 374 857 q 447 836 426 857 q 468 789 468 815 q 454 739 468 776 q 428 652 439 696 q 413 546 417 608 l 389 546 q 374 652 385 610 q 349 739 364 694 q 336 789 336 776 "},"#":{"ha":604,"x_min":39,"x_max":567,"o":"m 418 436 l 526 436 l 514 364 l 406 364 l 378 193 l 322 193 l 351 364 l 203 364 l 175 193 l 119 193 l 149 364 l 39 364 l 53 436 l 160 436 l 186 590 l 79 590 l 92 664 l 199 664 l 228 833 l 283 833 l 254 664 l 401 664 l 431 833 l 486 833 l 457 664 l 567 664 l 553 590 l 444 590 l 418 436 m 215 436 l 363 436 l 389 590 l 242 590 l 215 436 "},"$":{"ha":692,"x_min":79,"x_max":578,"o":"m 350 808 q 481 765 432 800 q 531 696 531 729 q 506 663 531 671 q 500 661 504 663 q 494 661 497 661 q 454 689 481 661 q 408 731 431 715 q 350 753 386 747 l 350 479 l 449 429 q 544 349 510 397 q 578 249 578 300 q 512 88 578 151 q 350 22 446 25 l 350 -115 l 300 -115 l 300 25 q 141 76 204 33 q 78 161 78 119 q 93 189 78 179 q 113 196 103 196 q 156 163 126 196 q 217 107 186 129 q 300 78 249 85 l 300 393 l 233 428 q 134 508 174 458 q 94 622 94 558 q 153 753 94 699 q 300 810 213 808 l 300 949 l 350 949 l 350 808 m 350 75 q 452 117 413 78 q 492 218 492 156 q 454 297 492 260 q 350 367 417 335 l 350 75 m 300 754 q 216 720 251 750 q 181 649 181 690 q 208 574 181 606 q 300 506 235 542 l 300 754 "},"%":{"ha":1060,"x_min":81,"x_max":978,"o":"m 978 178 q 962 101 978 138 q 917 36 946 64 q 851 -7 889 8 q 771 -22 813 -22 q 692 -7 729 -22 q 625 36 654 8 q 580 101 596 64 q 564 178 564 138 q 580 254 564 218 q 624 318 596 290 q 691 361 653 346 q 771 376 729 376 q 851 361 813 376 q 917 318 889 346 q 962 254 946 290 q 978 178 978 218 m 821 833 l 289 -25 l 239 0 l 771 858 l 821 833 m 496 657 q 480 581 496 618 q 435 517 464 544 q 368 474 406 489 q 289 458 331 458 q 209 474 247 458 q 142 517 171 489 q 97 581 114 544 q 81 657 81 617 q 97 734 81 697 q 142 799 114 771 q 209 842 171 826 q 289 857 247 857 q 368 842 331 857 q 435 799 406 826 q 480 734 464 771 q 496 657 496 697 m 886 178 q 857 288 886 244 q 771 331 828 331 q 685 288 714 331 q 657 178 657 244 q 685 67 657 110 q 771 25 714 25 q 857 68 828 25 q 886 178 886 111 m 403 657 q 374 767 403 724 q 289 810 344 810 q 203 767 232 810 q 174 657 174 725 q 203 547 174 590 q 289 504 232 504 q 374 547 344 504 q 403 657 403 590 "},"&":{"ha":913,"x_min":88,"x_max":893,"o":"m 324 496 l 324 496 q 465 593 419 551 q 511 697 511 635 q 480 773 511 743 q 401 803 449 803 q 305 764 340 803 q 269 679 269 725 q 324 496 269 593 m 535 104 q 385 267 447 197 q 281 399 324 338 q 212 316 236 360 q 188 208 188 272 q 240 84 188 138 q 372 31 293 31 q 465 50 425 31 q 535 104 506 69 m 568 69 q 361 -24 493 -24 q 263 -9 311 -24 q 174 36 214 6 q 110 113 133 67 q 88 219 88 160 q 129 349 88 296 q 246 449 171 401 q 169 657 169 568 q 238 800 169 743 q 313 842 271 828 q 401 857 354 857 q 542 812 483 857 q 600 697 600 767 q 558 593 600 633 q 431 503 517 553 q 350 453 376 471 q 576 181 411 363 q 596 264 592 222 q 599 308 599 292 q 572 372 599 356 q 474 389 546 389 l 474 418 l 788 418 l 788 389 q 717 383 743 389 q 677 363 692 376 q 656 326 663 349 q 643 264 649 304 q 611 143 633 190 q 699 63 656 93 q 779 32 743 32 q 869 81 821 32 l 893 57 q 827 -2 865 19 q 753 -24 789 -24 q 658 1 701 -24 q 568 69 614 25 "},"'":{"ha":340,"x_min":104,"x_max":236,"o":"m 104 789 q 124 837 104 817 q 169 857 143 857 q 216 837 196 857 q 236 789 236 817 q 222 739 236 776 q 196 652 207 696 q 181 546 185 608 l 157 546 q 142 652 153 610 q 117 739 132 694 q 104 789 104 776 "},"(":{"ha":497,"x_min":115,"x_max":458,"o":"m 458 -125 l 428 -154 q 199 103 283 -36 q 115 410 115 243 q 199 715 115 576 q 426 974 282 854 l 458 944 l 457 943 q 375 847 411 893 q 301 734 339 800 q 238 585 263 668 q 213 410 213 501 q 238 235 213 318 q 301 85 263 151 q 375 -27 339 19 q 457 -124 411 -74 l 458 -125 "},")":{"ha":497,"x_min":39,"x_max":382,"o":"m 382 410 q 299 103 382 243 q 71 -154 215 -36 l 39 -125 l 42 -122 q 123 -26 86 -72 q 198 86 160 19 q 261 235 236 153 q 286 410 286 318 q 261 584 286 501 q 198 733 236 667 q 123 846 160 800 q 42 942 86 892 l 39 944 l 72 974 q 299 715 217 854 q 382 410 382 576 "},"*":{"ha":565,"x_min":50,"x_max":515,"o":"m 269 575 q 213 528 232 551 q 176 476 193 504 q 150 443 161 450 q 117 433 135 433 q 58 468 78 433 q 49 499 49 482 q 83 557 49 538 q 126 565 94 563 q 188 572 160 567 q 257 597 217 578 q 187 624 217 618 q 125 631 157 629 q 83 638 94 632 q 49 696 49 660 q 58 726 49 713 q 117 761 78 761 q 150 751 135 761 q 176 718 161 744 q 213 666 193 689 q 269 619 232 643 q 258 692 267 664 q 233 749 249 719 q 218 789 218 776 q 237 837 218 817 q 282 857 256 857 q 329 836 308 857 q 350 789 350 815 q 335 749 350 776 q 309 691 319 719 q 296 618 299 663 q 353 665 333 643 q 389 715 372 688 q 417 749 406 742 q 451 758 433 758 q 507 726 488 758 q 515 694 515 713 q 483 636 515 656 q 439 628 472 629 q 377 622 407 628 q 308 597 347 617 q 378 572 349 578 q 440 567 408 567 q 483 560 472 565 q 515 500 515 539 q 507 468 515 483 q 451 436 488 436 q 417 446 433 436 q 389 479 406 453 q 352 530 372 507 q 294 576 332 553 q 308 504 299 532 q 335 447 318 476 q 350 406 350 418 q 329 358 350 379 q 282 338 308 338 q 237 358 256 338 q 218 406 218 378 q 233 446 218 419 q 258 503 249 475 q 269 575 267 532 "},"+":{"ha":636,"x_min":69,"x_max":567,"o":"m 349 338 l 567 338 l 567 276 l 349 276 l 349 58 l 288 58 l 288 276 l 69 276 l 69 338 l 288 338 l 288 556 l 349 556 l 349 338 "},",":{"ha":435,"x_min":135,"x_max":278,"o":"m 214 -3 q 203 -4 211 -4 q 157 16 176 -4 q 138 64 138 36 q 157 111 138 92 q 203 131 176 131 q 256 108 233 131 q 278 43 278 86 q 244 -68 278 -7 q 150 -167 211 -129 l 135 -150 q 190 -77 172 -110 q 214 -3 207 -44 "},"-":{"ha":636,"x_min":115,"x_max":521,"o":"m 521 254 l 115 254 l 115 315 l 521 315 l 521 254 "},".":{"ha":435,"x_min":138,"x_max":293,"o":"m 293 61 q 269 10 293 32 q 214 -11 246 -11 q 160 10 182 -11 q 138 61 138 32 q 160 113 138 92 q 214 135 182 135 q 269 113 246 135 q 293 61 293 92 "},"/":{"ha":483,"x_min":14,"x_max":469,"o":"m 469 839 l 69 -25 l 14 -6 l 414 858 l 469 839 "},":":{"ha":465,"x_min":167,"x_max":299,"o":"m 299 56 q 279 8 299 28 q 232 -11 260 -11 q 186 9 206 -11 q 167 56 167 29 q 186 103 167 83 q 232 122 206 122 q 279 103 260 122 q 299 56 299 83 m 299 319 q 279 272 299 292 q 232 253 260 253 q 186 273 206 253 q 167 319 167 293 q 186 367 167 347 q 232 386 206 386 q 279 367 260 386 q 299 319 299 347 "},";":{"ha":465,"x_min":164,"x_max":307,"o":"m 299 319 q 279 272 299 292 q 232 253 260 253 q 186 273 206 253 q 167 319 167 293 q 186 367 167 347 q 232 386 206 386 q 279 367 260 386 q 299 319 299 347 m 243 -11 l 232 -11 q 186 9 206 -11 q 167 56 167 29 q 186 103 167 83 q 232 122 206 122 q 285 100 263 122 q 307 35 307 78 q 274 -76 307 -15 q 179 -175 240 -137 l 164 -158 q 219 -85 201 -118 q 243 -11 236 -53 "},"<":{"ha":694,"x_min":115,"x_max":594,"o":"m 594 94 l 574 69 l 115 372 l 574 674 l 594 650 l 271 372 l 594 94 "},">":{"ha":694,"x_min":101,"x_max":579,"o":"m 579 372 l 122 69 l 101 94 l 424 372 l 101 650 l 122 674 l 579 372 "},"?":{"ha":700,"x_min":101,"x_max":631,"o":"m 379 56 q 360 8 379 28 q 313 -11 340 -11 q 267 9 286 -11 q 247 56 247 29 q 267 103 247 83 q 313 122 286 122 q 360 103 340 122 q 379 56 379 83 m 539 638 q 476 765 539 718 q 324 813 413 813 q 206 783 250 813 q 161 719 161 754 q 175 693 161 703 q 221 683 189 683 q 260 667 243 683 q 276 629 276 651 q 254 583 276 599 q 206 567 232 567 q 134 603 167 567 q 101 696 101 639 q 169 810 101 763 q 335 857 236 857 q 445 841 392 857 q 540 794 499 825 q 606 719 582 764 q 631 622 631 675 q 590 483 631 539 q 496 400 550 428 q 401 363 442 372 q 343 353 361 354 l 343 222 l 282 222 l 282 450 q 374 460 329 450 q 457 493 419 471 q 517 551 494 515 q 539 638 539 588 "},"@":{"ha":983,"x_min":54,"x_max":931,"o":"m 592 342 l 635 588 q 601 612 622 601 q 549 622 579 622 q 447 561 490 622 q 388 413 403 500 q 382 342 382 374 q 403 247 382 282 q 468 213 424 213 q 545 249 508 213 q 592 342 582 286 m 706 213 q 763 236 732 213 q 822 300 794 260 q 868 393 850 340 q 886 501 886 446 q 860 634 886 575 q 790 733 835 693 q 686 794 744 774 q 564 815 628 815 q 401 781 478 815 q 267 685 325 746 q 178 547 210 625 q 146 386 146 469 q 173 229 146 300 q 249 108 200 158 q 366 31 299 58 q 514 4 433 4 q 665 27 593 4 q 808 94 738 50 l 824 68 q 663 -16 743 11 q 503 -43 582 -43 q 329 -11 411 -43 q 185 79 247 21 q 89 215 124 138 q 54 382 54 293 q 92 569 54 481 q 199 726 131 658 q 356 832 267 794 q 543 869 444 869 q 696 844 625 869 q 819 769 767 818 q 901 653 872 721 q 931 504 931 585 q 908 376 931 438 q 846 266 885 314 q 761 190 807 218 q 672 163 715 163 q 610 183 635 163 q 581 233 586 204 q 517 180 558 203 q 443 157 476 157 q 333 210 372 157 q 293 347 293 263 q 299 413 293 379 q 333 510 308 464 q 392 592 357 557 q 470 647 428 628 q 556 667 513 667 q 603 661 583 667 q 644 643 622 656 l 722 643 l 661 296 q 658 263 658 278 q 706 213 658 213 "},"A":{"ha":857,"x_min":-53,"x_max":910,"o":"m 231 289 l 164 135 q 150 85 150 104 q 179 42 150 56 q 272 29 208 29 l 272 0 l -53 0 l -53 29 q 15 34 -10 29 q 56 51 40 39 q 82 83 71 63 q 110 142 93 103 l 114 150 l 419 857 l 438 857 l 744 150 q 749 142 744 150 q 776 83 765 103 q 803 51 788 63 q 842 34 818 39 q 910 29 867 29 l 910 0 l 525 0 l 525 29 q 618 42 589 29 q 647 85 647 56 q 633 135 647 104 l 567 289 l 231 289 m 543 340 l 397 675 l 253 340 l 543 340 "},"B":{"ha":831,"x_min":53,"x_max":764,"o":"m 464 51 q 596 103 550 51 q 642 233 642 154 q 596 366 642 314 q 464 418 550 418 l 296 418 l 296 213 q 301 127 296 158 q 319 80 306 96 q 357 58 332 64 q 428 51 382 51 l 464 51 m 296 782 l 296 469 l 419 469 q 533 513 494 469 q 572 625 572 557 q 533 738 572 693 q 419 782 494 782 l 296 782 m 586 453 q 715 368 667 428 q 764 233 764 308 q 685 66 764 132 q 465 0 606 0 l 53 0 l 53 29 q 124 35 99 29 q 162 58 149 42 q 180 106 175 75 q 185 192 185 136 l 185 643 q 180 729 185 699 q 162 776 175 760 q 124 798 149 792 q 53 804 99 804 l 53 833 l 426 833 q 624 774 554 833 q 694 625 694 715 q 665 527 694 572 q 586 453 635 482 "},"C":{"ha":961,"x_min":99,"x_max":858,"o":"m 858 15 l 831 15 q 811 62 825 39 q 783 94 797 85 q 663 7 729 38 q 525 -24 597 -24 q 361 10 439 -24 q 224 106 283 44 q 132 247 165 167 q 99 417 99 328 q 132 586 99 506 q 224 728 165 667 q 361 823 283 789 q 525 857 439 857 q 663 826 597 857 q 783 739 729 796 q 813 772 799 750 q 831 818 826 794 l 858 818 l 858 513 l 831 513 q 723 726 801 649 q 531 803 644 803 q 392 769 451 803 q 297 678 333 735 q 244 553 261 621 q 228 417 228 485 q 244 281 228 349 q 298 157 261 214 q 393 66 335 100 q 531 32 451 32 q 723 109 644 32 q 831 321 801 186 l 858 321 l 858 15 "},"D":{"ha":990,"x_min":53,"x_max":893,"o":"m 53 0 l 53 29 q 124 35 99 29 q 162 58 149 42 q 180 106 175 75 q 185 192 185 136 l 185 643 q 180 729 185 699 q 162 776 175 760 q 124 798 149 792 q 53 804 99 804 l 53 833 l 429 833 q 635 801 547 833 q 781 713 724 769 q 865 580 838 656 q 893 417 893 504 q 865 253 893 329 q 781 121 838 178 q 635 32 724 64 q 429 0 547 0 l 53 0 m 296 782 l 296 213 q 301 126 296 157 q 318 80 306 96 q 355 58 331 64 q 425 51 379 51 l 431 51 q 593 84 528 51 q 694 169 658 117 q 745 285 731 222 q 760 417 760 349 q 745 548 760 485 q 694 665 731 611 q 593 750 658 718 q 431 782 528 782 q 296 782 414 782 "},"E":{"ha":810,"x_min":53,"x_max":744,"o":"m 53 0 l 53 29 q 124 35 99 29 q 162 58 149 42 q 180 106 175 75 q 185 192 185 136 l 185 643 q 180 729 185 699 q 162 776 175 760 q 124 798 149 792 q 53 804 99 804 l 53 833 l 686 833 l 699 650 l 669 650 l 663 678 q 618 760 646 739 q 501 782 590 782 l 296 782 l 296 467 l 365 467 q 451 472 421 467 q 498 490 482 476 q 520 528 514 503 q 526 600 526 554 l 556 600 l 556 282 l 526 282 q 520 353 526 328 q 498 392 514 379 q 451 410 482 406 q 365 415 421 415 l 296 415 l 296 213 q 301 127 296 158 q 319 80 306 96 q 357 58 332 64 q 428 51 382 51 l 547 51 q 665 74 636 51 q 708 157 693 96 l 715 185 l 744 185 l 733 0 l 53 0 "},"F":{"ha":744,"x_min":53,"x_max":721,"o":"m 296 782 l 296 467 l 365 467 q 451 472 421 467 q 498 490 482 476 q 520 528 514 503 q 526 600 526 554 l 556 600 l 556 282 l 526 282 q 520 353 526 328 q 498 392 514 379 q 451 410 482 406 q 365 415 421 415 l 296 415 l 296 192 q 301 106 296 136 q 319 58 306 75 q 357 35 332 42 q 428 29 382 29 l 428 0 l 53 0 l 53 29 q 124 35 99 29 q 162 58 149 42 q 180 106 175 75 q 185 192 185 136 l 185 643 q 180 729 185 699 q 162 776 175 760 q 124 798 149 792 q 53 804 99 804 l 53 833 l 710 833 l 721 650 l 692 650 l 685 678 q 642 760 669 739 q 525 782 614 782 l 296 782 "},"G":{"ha":1007,"x_min":99,"x_max":1018,"o":"m 785 226 q 755 294 785 272 q 654 317 725 317 l 654 344 l 1018 344 l 1018 317 q 947 310 972 317 q 909 288 922 304 q 891 240 896 271 q 886 154 886 210 l 886 49 q 794 39 835 49 q 700 11 753 29 q 609 -15 646 -7 q 525 -24 572 -24 q 361 10 439 -24 q 224 106 283 44 q 132 247 165 167 q 99 417 99 328 q 132 586 99 506 q 224 728 165 667 q 361 823 283 789 q 525 857 439 857 q 663 826 597 857 q 783 739 729 796 q 813 772 799 750 q 831 818 826 794 l 858 818 l 858 513 l 831 513 q 724 726 803 649 q 529 803 644 803 q 391 769 450 803 q 296 678 332 735 q 243 553 260 621 q 226 417 226 485 q 243 280 226 346 q 297 158 260 214 q 399 69 335 103 q 556 36 464 36 q 718 87 651 36 q 785 226 785 138 "},"H":{"ha":1063,"x_min":53,"x_max":1011,"o":"m 296 417 l 296 192 q 301 106 296 136 q 319 58 306 75 q 357 35 332 42 q 428 29 382 29 l 428 0 l 53 0 l 53 29 q 124 35 99 29 q 162 58 149 42 q 180 106 175 75 q 185 192 185 136 l 185 643 q 180 729 185 699 q 162 776 175 760 q 124 798 149 792 q 53 804 99 804 l 53 833 l 428 833 l 428 804 q 357 798 382 804 q 319 776 332 792 q 301 729 306 760 q 296 643 296 699 l 296 468 l 768 468 l 768 643 q 763 728 768 697 q 745 776 758 760 q 706 798 732 792 q 635 804 681 804 l 635 833 l 1011 833 l 1011 804 q 940 798 965 804 q 901 776 914 792 q 883 729 888 760 q 878 643 878 699 l 878 192 q 883 106 878 136 q 901 58 888 75 q 940 35 914 42 q 1011 29 965 29 l 1011 0 l 635 0 l 635 29 q 706 35 681 29 q 744 58 731 42 q 763 106 758 75 q 768 192 768 138 l 768 417 l 296 417 "},"I":{"ha":481,"x_min":53,"x_max":428,"o":"m 428 0 l 53 0 l 53 29 q 124 35 99 29 q 162 58 149 42 q 180 106 175 75 q 185 192 185 136 l 185 643 q 180 729 185 699 q 162 776 175 760 q 124 798 149 792 q 53 804 99 804 l 53 833 l 428 833 l 428 804 q 357 798 382 804 q 319 776 332 792 q 301 729 306 760 q 296 643 296 699 l 296 192 q 301 106 296 136 q 319 58 306 75 q 357 35 332 42 q 428 29 382 29 l 428 0 "},"J":{"ha":481,"x_min":-151,"x_max":428,"o":"m 53 -268 q 151 -221 117 -268 q 185 -76 185 -174 l 185 643 q 180 729 185 699 q 162 776 175 760 q 124 798 149 792 q 53 804 99 804 l 53 833 l 428 833 l 428 804 q 357 798 382 804 q 319 776 332 792 q 301 729 306 760 q 296 643 296 699 l 296 -61 q 274 -181 296 -132 q 217 -258 253 -231 q 140 -298 182 -286 q 53 -310 97 -310 q -15 -301 21 -310 q -82 -275 -51 -292 q -132 -233 -112 -258 q -151 -178 -151 -208 q -137 -144 -151 -158 q -103 -131 -124 -131 q -69 -144 -83 -131 q -56 -178 -56 -158 q -26 -240 -56 -212 q 53 -268 3 -268 "},"K":{"ha":1014,"x_min":53,"x_max":1021,"o":"m 411 483 l 842 110 q 935 53 879 78 q 1021 29 990 29 l 1021 0 l 631 0 l 631 29 q 715 63 715 29 q 683 110 715 83 l 332 414 l 296 385 l 296 192 q 301 106 296 136 q 319 58 306 75 q 357 35 332 42 q 428 29 382 29 l 428 0 l 53 0 l 53 29 q 124 35 99 29 q 162 58 149 42 q 180 106 175 75 q 185 192 185 136 l 185 643 q 180 729 185 699 q 162 776 175 760 q 124 798 149 792 q 53 804 99 804 l 53 833 l 428 833 l 428 804 q 357 798 382 804 q 319 776 332 792 q 301 729 306 760 q 296 643 296 699 l 296 449 l 581 692 q 649 778 649 750 q 586 804 649 804 l 586 833 l 908 833 l 908 804 q 781 781 831 804 q 654 692 731 757 l 411 483 "},"L":{"ha":799,"x_min":53,"x_max":790,"o":"m 53 0 l 53 29 q 124 35 99 29 q 162 58 149 42 q 180 106 175 75 q 185 192 185 136 l 185 643 q 180 729 185 699 q 162 776 175 760 q 124 798 149 792 q 53 804 99 804 l 53 833 l 428 833 l 428 804 q 357 798 382 804 q 319 776 332 792 q 301 729 306 760 q 296 643 296 699 l 296 213 q 301 127 296 158 q 319 80 306 96 q 357 58 332 64 q 428 51 382 51 l 594 51 q 711 74 683 51 q 754 157 739 96 l 761 185 l 790 185 l 779 0 l 53 0 "},"M":{"ha":1146,"x_min":53,"x_max":1094,"o":"m 236 686 l 236 192 q 241 106 236 138 q 260 58 246 75 q 299 35 274 42 q 369 29 324 29 l 369 0 l 53 0 l 53 29 q 124 35 99 29 q 162 58 149 42 q 180 106 175 75 q 185 192 185 136 l 185 643 q 180 729 185 699 q 162 776 175 760 q 124 798 149 792 q 53 804 99 804 l 53 833 l 289 833 l 583 157 l 876 833 l 1094 833 l 1094 804 q 1023 798 1049 804 q 984 776 997 792 q 966 729 971 760 q 961 643 961 699 l 961 192 q 966 106 961 136 q 984 58 971 75 q 1023 35 997 42 q 1094 29 1049 29 l 1094 0 l 719 0 l 719 29 q 790 35 765 29 q 828 58 815 42 q 847 106 842 75 q 851 192 851 136 l 851 644 l 563 -24 l 544 -24 l 236 686 "},"N":{"ha":1007,"x_min":53,"x_max":967,"o":"m 782 172 l 782 643 q 777 729 782 699 q 759 776 772 760 q 721 798 746 792 q 650 804 696 804 l 650 833 l 967 833 l 967 804 q 896 798 921 804 q 857 776 871 792 q 838 728 843 760 q 833 643 833 697 l 833 -24 l 801 -24 l 236 675 l 236 192 q 241 106 236 138 q 260 58 246 75 q 299 35 274 42 q 369 29 324 29 l 369 0 l 53 0 l 53 29 q 124 35 99 29 q 162 58 149 42 q 180 106 175 75 q 185 192 185 136 l 185 643 q 180 729 185 699 q 162 776 175 760 q 124 798 149 792 q 53 804 99 804 l 53 833 l 249 833 l 782 172 "},"O":{"ha":1122,"x_min":99,"x_max":1025,"o":"m 1025 417 q 989 247 1025 328 q 889 106 953 167 q 740 10 825 44 q 561 -24 656 -24 q 383 10 468 -24 q 235 106 299 44 q 135 247 171 167 q 99 417 99 328 q 135 586 99 506 q 235 728 171 667 q 383 823 299 789 q 561 857 468 857 q 740 823 656 857 q 889 728 825 789 q 989 586 953 667 q 1025 417 1025 506 m 561 803 q 412 769 475 803 q 308 678 349 735 q 249 553 268 621 q 231 417 231 485 q 249 281 231 349 q 308 157 268 214 q 412 66 349 100 q 561 32 475 32 q 711 66 647 32 q 815 157 775 100 q 874 281 856 214 q 893 417 893 349 q 874 553 893 485 q 815 678 856 621 q 711 769 775 735 q 561 803 647 803 "},"P":{"ha":750,"x_min":53,"x_max":718,"o":"m 419 833 q 639 767 560 833 q 718 599 718 700 q 639 431 718 497 q 419 365 560 365 l 296 365 l 296 192 q 301 106 296 136 q 319 58 306 75 q 357 35 332 42 q 428 29 382 29 l 428 0 l 53 0 l 53 29 q 124 35 99 29 q 162 58 149 42 q 180 106 175 75 q 185 192 185 136 l 185 643 q 180 729 185 699 q 162 776 175 760 q 124 798 149 792 q 53 804 99 804 l 53 833 l 419 833 m 418 415 q 549 467 504 415 q 594 599 594 518 q 549 731 594 679 q 418 782 504 782 l 296 782 l 296 415 l 418 415 "},"Q":{"ha":1122,"x_min":99,"x_max":1225,"o":"m 486 -18 q 331 35 403 -4 q 208 134 260 75 q 127 265 156 193 q 99 417 99 338 q 135 586 99 506 q 235 728 171 667 q 383 823 299 789 q 561 857 468 857 q 740 823 656 857 q 889 728 825 789 q 989 586 953 667 q 1025 417 1025 506 q 993 255 1025 331 q 903 120 961 179 q 769 25 846 61 q 608 -21 693 -11 q 511 -46 563 -25 q 424 -100 460 -67 q 514 -90 469 -90 q 638 -111 585 -90 q 763 -174 692 -132 q 868 -227 825 -210 q 963 -244 911 -244 q 1112 -212 1056 -244 q 1203 -110 1168 -179 l 1225 -121 q 1187 -200 1211 -160 q 1127 -275 1163 -240 q 1043 -331 1092 -310 q 936 -351 994 -351 q 818 -321 875 -351 q 681 -232 761 -290 q 569 -158 613 -182 q 483 -133 525 -133 q 401 -150 428 -133 q 354 -196 375 -167 q 337 -217 344 -210 q 317 -226 329 -225 q 269 -182 269 -226 q 286 -144 269 -167 q 332 -97 303 -121 q 401 -53 361 -74 q 486 -18 442 -32 m 561 803 q 411 769 475 803 q 306 678 347 735 q 246 553 265 621 q 226 417 226 485 q 246 281 226 349 q 306 157 265 214 q 411 66 347 100 q 561 32 475 32 q 712 66 647 32 q 817 156 776 100 q 878 281 858 213 q 897 417 897 349 q 878 553 897 485 q 817 678 858 621 q 712 769 776 735 q 561 803 647 803 "},"R":{"ha":861,"x_min":53,"x_max":865,"o":"m 418 415 q 549 467 504 415 q 594 599 594 518 q 549 731 594 679 q 418 782 504 782 l 296 782 l 296 415 l 418 415 m 471 365 l 607 206 q 738 83 671 131 q 865 29 804 36 l 865 0 l 636 0 l 361 365 l 296 365 l 296 192 q 301 106 296 136 q 319 58 306 75 q 357 35 332 42 q 428 29 382 29 l 428 0 l 53 0 l 53 29 q 124 35 99 29 q 162 58 149 42 q 180 106 175 75 q 185 192 185 136 l 185 643 q 180 729 185 699 q 162 776 175 760 q 124 798 149 792 q 53 804 99 804 l 53 833 l 419 833 q 639 767 560 833 q 718 599 718 700 q 652 442 718 506 q 471 365 586 378 "},"S":{"ha":692,"x_min":81,"x_max":629,"o":"m 149 42 q 108 -24 117 15 l 81 -24 l 81 282 l 108 282 q 115 231 108 267 q 145 149 121 196 q 224 67 169 103 q 365 32 278 32 q 490 75 440 32 q 539 185 539 118 q 497 272 539 231 q 379 353 456 313 l 246 421 q 136 515 181 456 q 92 650 92 575 q 157 797 92 738 q 322 857 222 857 q 416 842 378 857 q 492 800 454 828 q 532 864 524 826 l 560 864 l 560 558 l 531 558 q 515 647 526 606 q 479 724 503 689 q 416 781 456 760 q 318 801 376 801 q 222 766 260 801 q 183 678 183 731 q 220 591 183 626 q 351 506 257 556 l 485 438 q 594 344 560 400 q 629 226 629 289 q 608 124 629 171 q 551 45 588 78 q 467 -6 515 13 q 365 -24 419 -24 q 280 -11 318 -24 q 199 21 242 1 q 149 42 164 39 "},"T":{"ha":890,"x_min":11,"x_max":879,"o":"m 867 833 l 879 646 l 850 646 l 843 674 q 799 758 826 736 q 682 779 771 779 l 500 779 l 500 192 q 505 106 500 138 q 524 58 510 75 q 563 35 538 42 q 633 29 588 29 l 633 0 l 257 0 l 257 29 q 328 35 303 29 q 367 58 353 42 q 385 106 381 75 q 390 192 390 138 l 390 779 l 208 779 q 92 758 119 779 q 47 674 64 736 l 40 646 l 11 646 l 24 833 l 867 833 "},"U":{"ha":994,"x_min":32,"x_max":965,"o":"m 774 643 q 769 728 774 697 q 751 776 764 760 q 712 798 738 792 q 640 804 686 804 l 640 833 l 965 833 l 965 804 q 894 798 919 804 q 856 776 869 792 q 837 728 842 760 q 832 643 832 697 l 832 310 q 738 65 832 153 q 497 -24 643 -24 q 258 65 353 -24 q 164 310 164 153 l 164 643 q 159 729 164 699 q 141 776 154 760 q 103 798 128 792 q 32 804 78 804 l 32 833 l 407 833 l 407 804 q 336 798 361 804 q 298 776 311 792 q 280 729 285 760 q 275 643 275 699 l 275 303 q 342 106 275 172 q 518 39 408 39 q 703 106 633 39 q 774 303 774 172 l 774 643 "},"V":{"ha":857,"x_min":-53,"x_max":908,"o":"m 908 804 q 840 799 865 804 q 801 783 815 794 q 775 751 786 771 q 746 690 764 732 q 743 683 744 686 l 438 -24 l 419 -24 l 113 683 q 110 690 111 686 q 81 751 92 732 q 55 783 69 771 q 15 799 40 794 q -53 804 -10 804 l -53 833 l 332 833 l 332 804 q 239 791 268 804 q 210 750 210 778 q 224 699 210 729 l 460 158 l 693 699 q 707 749 707 729 q 678 791 707 778 q 585 804 649 804 l 585 833 l 908 833 l 908 804 "},"W":{"ha":1101,"x_min":-60,"x_max":1149,"o":"m 546 592 l 350 -24 l 331 -24 l 107 683 q 82 747 93 725 q 55 782 71 769 q 13 799 39 794 q -60 804 -14 804 l -60 833 l 331 833 l 331 804 q 238 792 265 804 q 211 747 211 779 q 221 699 211 729 l 372 219 l 567 833 l 588 833 l 782 221 l 933 699 q 942 744 942 726 q 917 790 942 776 q 836 804 893 804 l 836 833 l 1149 833 l 1149 804 q 1078 799 1106 804 q 1033 779 1050 793 q 1006 743 1017 765 q 983 683 996 721 l 758 -24 l 740 -24 l 546 592 "},"X":{"ha":853,"x_min":-29,"x_max":885,"o":"m 407 365 l 226 135 q 201 78 201 101 q 225 42 201 56 q 301 29 249 29 l 301 0 l -29 0 l -29 29 q 81 61 38 29 q 171 150 125 93 l 375 414 l 193 683 q 106 774 151 743 q -7 804 61 804 l -7 833 l 388 833 l 388 804 q 312 792 336 804 q 288 758 288 781 q 314 699 288 736 l 446 504 l 597 699 q 626 760 626 736 q 524 804 626 804 l 524 833 l 853 833 l 853 804 q 745 781 781 804 q 665 700 710 757 q 653 683 656 688 l 476 456 l 685 150 q 773 58 729 88 q 885 29 817 29 l 885 0 l 489 0 l 489 29 q 566 40 542 29 q 590 74 590 51 q 563 135 590 96 l 407 365 "},"Y":{"ha":868,"x_min":-53,"x_max":921,"o":"m 490 336 l 490 192 q 495 106 490 136 q 513 58 500 75 q 551 35 526 42 q 622 29 576 29 l 622 0 l 247 0 l 247 29 q 318 35 293 29 q 356 58 343 42 q 374 106 369 75 q 379 192 379 136 l 379 326 l 149 683 q 61 778 103 753 q -53 804 19 804 l -53 833 l 343 833 l 343 804 q 267 793 290 804 q 243 760 243 782 q 268 699 243 738 l 468 393 l 671 699 q 699 764 699 742 q 596 804 699 804 l 596 833 l 921 833 l 921 804 q 803 779 840 804 q 719 683 767 754 l 490 336 "},"Z":{"ha":799,"x_min":60,"x_max":710,"o":"m 528 782 l 272 782 q 155 760 183 782 q 111 678 126 739 l 104 650 l 75 650 l 88 833 l 679 833 l 679 817 l 200 51 l 513 51 q 630 74 601 51 q 674 157 658 96 l 681 185 l 710 185 l 699 0 l 60 0 l 60 32 l 528 782 "},"[":{"ha":497,"x_min":163,"x_max":443,"o":"m 443 -122 l 163 -122 l 163 942 l 443 942 l 443 897 l 253 897 l 253 -78 l 443 -78 l 443 -122 "},"\\":{"ha":483,"x_min":-51,"x_max":532,"o":"m 532 0 l 482 -25 l -51 833 l -1 858 l 532 0 "},"]":{"ha":497,"x_min":54,"x_max":336,"o":"m 336 -122 l 54 -122 l 54 -78 l 246 -78 l 246 897 l 54 897 l 54 942 l 336 942 l 336 -122 "},"^":{"ha":674,"x_min":58,"x_max":615,"o":"m 338 857 l 615 469 l 590 449 l 338 701 l 82 449 l 58 469 l 338 857 "},"a":{"ha":560,"x_min":53,"x_max":538,"o":"m 538 28 q 446 -15 497 -15 q 351 65 363 -15 q 261 1 301 21 q 178 -18 221 -18 q 89 14 125 -18 q 53 99 53 46 q 76 174 53 142 q 140 230 99 207 q 232 269 181 253 q 349 296 283 285 q 331 410 349 378 q 256 442 313 442 q 202 424 228 442 q 176 375 176 406 q 163 340 176 354 q 129 326 149 326 q 94 340 108 326 q 81 375 81 354 q 134 455 81 424 q 257 486 188 486 q 403 442 358 486 q 447 297 447 397 l 447 88 q 479 33 447 33 q 499 40 489 33 q 518 54 510 46 l 538 28 m 349 111 l 349 253 q 157 115 157 208 q 176 64 157 83 q 222 44 194 44 q 276 58 247 44 q 349 111 304 72 "},"b":{"ha":690,"x_min":4,"x_max":622,"o":"m 213 321 l 213 143 q 269 62 232 92 q 353 32 306 32 q 471 88 431 32 q 511 232 511 143 q 471 376 511 321 q 353 431 431 431 q 269 401 306 431 q 213 321 232 371 m 204 69 l 143 -24 l 114 -24 l 114 631 q 109 716 114 685 q 93 764 104 747 q 61 787 82 781 q 4 793 40 793 l 4 822 l 213 857 l 213 404 q 382 486 279 486 q 474 467 431 486 q 551 412 518 447 q 603 330 585 376 q 622 232 622 283 q 603 134 622 181 q 551 51 585 88 q 474 -4 518 15 q 382 -24 431 -24 q 281 1 328 -24 q 204 69 235 26 "},"c":{"ha":546,"x_min":67,"x_max":519,"o":"m 313 442 q 218 378 257 442 q 179 219 179 315 q 222 84 179 133 q 347 35 264 35 q 423 51 383 35 q 496 99 463 68 l 519 68 q 425 1 479 25 q 313 -24 371 -24 q 133 44 200 -24 q 67 219 67 113 q 88 328 67 278 q 147 413 110 378 q 227 467 183 449 q 313 486 271 486 q 436 457 394 486 q 478 386 478 428 q 463 345 478 364 q 417 326 449 326 q 378 342 394 326 q 363 382 363 358 q 348 428 363 414 q 313 442 333 442 "},"d":{"ha":713,"x_min":67,"x_max":686,"o":"m 478 142 l 478 321 q 421 401 458 371 q 338 431 383 431 q 219 376 260 431 q 179 232 179 321 q 219 88 179 143 q 338 32 260 32 q 421 62 383 32 q 478 142 458 92 m 478 404 l 478 631 q 474 717 478 686 q 458 764 469 747 q 426 787 447 781 q 368 793 406 793 l 368 822 l 576 857 l 576 203 q 581 117 576 149 q 597 69 586 86 q 629 47 608 53 q 686 40 650 40 l 686 11 l 501 -24 q 490 13 497 -14 q 479 61 483 39 q 406 -1 449 22 q 308 -24 363 -24 q 216 -4 260 -24 q 138 51 172 15 q 85 134 104 88 q 67 232 67 181 q 85 330 67 283 q 138 412 104 376 q 215 467 171 447 q 308 486 260 486 q 478 404 411 486 "},"e":{"ha":586,"x_min":67,"x_max":536,"o":"m 186 318 l 417 318 q 421 344 421 331 q 395 405 421 379 q 317 431 369 431 q 237 400 272 431 q 186 318 201 369 m 178 267 q 175 222 175 244 q 221 86 175 138 q 358 35 267 35 q 438 53 393 35 q 511 99 482 71 l 536 68 q 440 2 499 28 q 324 -24 382 -24 q 220 -4 268 -24 q 138 51 172 15 q 85 133 104 86 q 67 232 67 181 q 88 333 67 286 q 147 414 110 379 q 229 467 183 449 q 324 486 275 486 q 462 436 404 486 q 519 314 519 386 q 513 267 519 290 l 178 267 "},"f":{"ha":435,"x_min":49,"x_max":529,"o":"m 261 414 l 261 192 q 265 106 261 136 q 281 58 269 75 q 313 35 293 42 q 371 29 333 29 l 371 0 l 53 0 l 53 29 q 110 35 89 29 q 142 58 131 42 q 158 106 153 75 q 163 192 163 138 l 163 414 l 49 414 l 49 463 l 163 463 l 163 596 q 181 715 163 665 q 233 796 200 764 q 306 842 265 828 q 390 857 346 857 q 492 824 454 857 q 529 754 529 792 q 483 704 529 704 q 453 716 463 704 q 433 753 443 728 q 409 797 422 782 q 365 811 396 811 q 286 762 311 811 q 261 596 261 713 l 261 463 l 400 463 l 400 414 l 261 414 "},"g":{"ha":588,"x_min":26,"x_max":594,"o":"m 365 297 q 340 402 365 363 q 265 442 314 442 q 190 401 217 442 q 164 297 164 361 q 190 194 164 235 q 265 154 217 154 q 340 194 314 154 q 365 297 365 233 m 136 50 q 174 13 136 25 q 263 -3 213 1 q 456 -64 397 -14 q 515 -185 515 -114 q 445 -320 515 -269 q 269 -371 375 -371 q 93 -327 160 -371 q 26 -224 26 -283 q 114 -110 26 -156 l 139 -125 q 94 -215 94 -174 q 149 -290 94 -262 q 269 -317 203 -317 q 390 -287 338 -317 q 442 -210 442 -257 q 396 -143 442 -164 q 256 -112 350 -122 q 110 -73 163 -104 q 58 17 58 -42 q 89 83 58 54 q 175 128 119 111 q 90 198 122 154 q 58 297 58 242 q 119 431 58 375 q 265 486 181 486 q 408 433 349 486 q 458 471 426 456 q 513 486 490 486 q 573 464 551 486 q 594 414 594 442 q 585 383 594 396 q 558 369 575 371 q 531 378 539 369 q 515 401 522 386 q 501 424 508 417 q 475 432 493 432 q 432 410 454 432 q 472 297 472 361 q 418 171 472 224 q 292 108 364 118 q 236 101 260 104 q 189 90 213 97 q 151 74 165 83 q 136 50 136 64 "},"h":{"ha":725,"x_min":26,"x_max":699,"o":"m 699 0 l 392 0 l 392 29 q 445 35 426 29 q 474 57 464 40 q 487 104 483 74 q 490 192 490 135 l 490 272 q 464 381 490 342 q 385 421 438 421 q 282 380 329 421 q 235 282 235 339 l 235 192 q 238 103 235 135 q 250 56 242 72 q 275 35 258 40 q 322 29 292 29 l 322 0 l 26 0 l 26 29 q 85 35 64 29 q 117 58 106 42 q 132 106 128 75 q 136 192 136 136 l 136 631 q 132 717 136 686 q 117 764 128 747 q 85 787 106 781 q 26 793 64 793 l 26 822 l 235 857 l 235 386 q 315 458 269 429 q 417 486 361 486 q 547 431 507 486 q 588 279 588 375 l 588 192 q 592 106 588 138 q 608 58 597 75 q 640 35 619 42 q 699 29 661 29 l 699 0 "},"i":{"ha":397,"x_min":53,"x_max":371,"o":"m 371 0 l 53 0 l 53 29 q 110 35 89 29 q 142 58 131 42 q 158 106 153 75 q 163 192 163 138 l 163 261 q 158 347 163 315 q 142 394 154 378 q 110 416 131 410 q 53 422 89 422 l 53 451 l 261 486 l 261 192 q 265 106 261 136 q 281 58 269 75 q 313 35 293 42 q 371 29 333 29 l 371 0 m 272 685 q 254 640 272 658 q 211 622 236 622 q 168 640 186 622 q 150 685 150 658 q 168 728 150 710 q 211 746 186 746 q 254 728 236 746 q 272 685 272 710 "},"j":{"ha":379,"x_min":-106,"x_max":272,"o":"m 261 -108 q 202 -305 261 -239 q 57 -371 143 -371 q -60 -334 -15 -371 q -106 -257 -106 -297 q -65 -217 -106 -217 q -33 -228 -43 -217 q -12 -265 -22 -240 q 15 -310 0 -294 q 64 -325 29 -325 q 136 -278 110 -325 q 163 -108 163 -231 l 163 261 q 158 347 163 315 q 142 394 154 378 q 110 416 131 410 q 53 422 89 422 l 53 451 l 261 486 l 261 -108 m 272 685 q 254 640 272 658 q 211 622 236 622 q 168 640 186 622 q 150 685 150 658 q 168 728 150 710 q 211 746 186 746 q 254 728 236 746 q 272 685 272 710 "},"k":{"ha":611,"x_min":26,"x_max":629,"o":"m 324 288 l 547 63 q 588 38 564 47 q 629 29 613 29 l 629 0 l 475 0 l 247 226 l 235 217 l 235 192 q 240 106 235 138 q 256 58 244 75 q 288 35 267 42 q 344 29 308 29 l 344 0 l 26 0 l 26 29 q 85 35 64 29 q 117 58 106 42 q 132 106 128 75 q 136 192 136 136 l 136 631 q 132 717 136 686 q 117 764 128 747 q 85 787 106 781 q 26 793 64 793 l 26 822 l 235 857 l 235 267 l 351 361 q 376 400 376 382 q 310 435 376 435 l 310 463 l 588 463 l 588 435 q 567 433 582 435 q 531 425 553 431 q 485 410 508 419 q 442 385 461 400 l 324 288 "},"l":{"ha":372,"x_min":26,"x_max":344,"o":"m 344 0 l 26 0 l 26 29 q 85 35 64 29 q 117 58 106 42 q 132 106 128 75 q 136 192 136 136 l 136 631 q 132 717 136 686 q 117 764 128 747 q 85 787 106 781 q 26 793 64 793 l 26 822 l 235 857 l 235 192 q 240 106 235 138 q 256 58 244 75 q 288 35 267 42 q 344 29 308 29 l 344 0 "},"m":{"ha":1081,"x_min":53,"x_max":1053,"o":"m 601 282 l 601 192 q 604 103 601 133 q 616 56 607 72 q 641 35 625 40 q 689 29 657 29 l 689 0 l 417 0 l 417 29 q 464 35 447 29 q 490 56 481 40 q 501 102 499 71 q 504 192 504 133 l 504 272 q 481 382 504 343 q 404 421 457 421 q 360 410 385 421 q 313 382 336 400 q 276 338 290 364 q 261 282 261 313 l 261 192 q 264 103 261 135 q 276 56 267 72 q 301 35 285 40 q 347 29 317 29 l 347 0 l 53 0 l 53 29 q 110 35 89 29 q 142 58 131 42 q 158 106 153 75 q 163 192 163 138 l 163 261 q 158 347 163 315 q 142 394 154 378 q 110 416 131 410 q 53 422 89 422 l 53 451 l 238 486 q 251 442 243 476 q 261 386 258 408 q 340 457 294 428 q 442 486 386 486 q 538 459 503 486 q 589 382 574 432 q 672 453 617 421 q 783 486 726 486 q 907 431 871 486 q 943 279 943 376 l 943 192 q 948 106 943 138 q 964 58 953 75 q 996 35 975 42 q 1053 29 1017 29 l 1053 0 l 758 0 l 758 29 q 806 34 789 29 q 831 55 822 39 q 842 102 839 71 q 844 192 844 133 l 844 272 q 822 382 844 343 q 746 421 799 421 q 703 411 728 421 q 654 383 678 401 q 616 338 631 364 q 601 282 601 313 "},"n":{"ha":771,"x_min":53,"x_max":744,"o":"m 261 386 q 343 457 294 428 q 454 486 392 486 q 590 429 544 486 q 635 279 635 372 l 635 192 q 639 106 635 136 q 655 58 643 75 q 687 35 667 42 q 744 29 707 29 l 744 0 l 426 0 l 426 29 q 483 35 463 29 q 515 58 504 42 q 531 106 526 75 q 536 192 536 138 l 536 272 q 508 382 536 343 q 421 421 481 421 q 312 379 363 421 q 261 282 261 338 l 261 192 q 265 104 261 135 q 278 57 268 74 q 306 35 288 40 q 358 29 324 29 l 358 0 l 53 0 l 53 29 q 110 35 89 29 q 142 58 131 42 q 158 106 153 75 q 163 192 163 138 l 163 261 q 158 347 163 315 q 142 394 154 378 q 110 416 131 410 q 53 422 89 422 l 53 451 l 238 486 q 251 442 243 476 q 261 386 258 408 "},"o":{"ha":708,"x_min":67,"x_max":628,"o":"m 628 232 q 606 134 628 181 q 546 51 585 88 q 456 -4 507 15 q 347 -24 404 -24 q 240 -4 290 -24 q 149 51 189 15 q 88 134 110 88 q 67 232 67 181 q 89 330 67 283 q 149 412 111 376 q 239 467 188 447 q 347 486 290 486 q 456 467 404 486 q 546 412 507 447 q 606 330 585 376 q 628 232 628 283 m 515 232 q 472 377 515 321 q 347 433 429 433 q 222 376 265 433 q 179 232 179 319 q 222 88 179 144 q 347 31 265 31 q 472 87 429 31 q 515 232 515 143 "},"p":{"ha":713,"x_min":26,"x_max":646,"o":"m 533 232 q 493 375 533 319 q 376 431 453 431 q 292 401 329 431 q 235 322 256 371 l 235 143 q 292 62 256 92 q 376 32 329 32 q 493 88 453 32 q 533 232 533 144 m 235 -157 q 240 -242 235 -211 q 256 -290 244 -274 q 288 -312 267 -306 q 344 -318 308 -318 l 344 -347 l 26 -347 l 26 -318 q 85 -312 64 -318 q 117 -290 106 -306 q 132 -243 128 -274 q 136 -157 136 -212 l 136 261 q 132 347 136 317 q 117 394 128 378 q 85 416 106 410 q 26 422 64 422 l 26 451 l 213 486 q 223 453 217 478 q 233 401 229 428 q 309 463 267 440 q 406 486 351 486 q 498 467 454 486 q 575 412 542 447 q 627 330 608 376 q 646 232 646 283 q 627 134 646 181 q 575 51 608 88 q 498 -4 542 15 q 406 -24 454 -24 q 310 -1 354 -24 q 235 60 267 21 l 235 -157 "},"q":{"ha":690,"x_min":67,"x_max":686,"o":"m 478 143 l 478 321 q 421 401 458 371 q 338 431 383 431 q 219 376 260 431 q 179 232 179 321 q 219 88 179 143 q 338 32 260 32 q 421 63 383 32 q 478 143 458 93 m 576 -157 q 581 -242 576 -211 q 597 -290 586 -274 q 629 -312 608 -306 q 686 -318 650 -318 l 686 -347 l 368 -347 l 368 -318 q 426 -312 406 -318 q 458 -290 447 -306 q 474 -243 469 -274 q 478 -157 478 -212 l 478 60 q 403 -1 446 21 q 308 -24 360 -24 q 216 -4 260 -24 q 138 51 172 15 q 85 134 104 88 q 67 232 67 181 q 85 330 67 283 q 138 412 104 376 q 215 467 171 447 q 308 486 260 486 q 409 462 363 486 q 486 393 456 438 l 547 486 l 576 486 l 576 -157 "},"r":{"ha":546,"x_min":53,"x_max":517,"o":"m 517 400 q 503 354 517 374 q 461 335 490 335 q 427 350 442 335 q 413 385 413 365 q 368 431 413 431 q 299 386 336 431 q 261 268 261 342 l 261 192 q 265 106 261 136 q 281 58 269 75 q 313 35 293 42 q 371 29 333 29 l 371 0 l 53 0 l 53 29 q 110 35 89 29 q 142 58 131 42 q 158 106 153 75 q 163 192 163 138 l 163 261 q 158 347 163 315 q 142 394 154 378 q 110 416 131 410 q 53 422 89 422 l 53 451 l 238 486 q 251 442 243 476 q 261 386 258 408 q 324 457 282 428 q 407 486 365 486 q 488 458 460 486 q 517 400 517 431 "},"s":{"ha":449,"x_min":60,"x_max":401,"o":"m 401 128 q 353 19 401 61 q 236 -24 306 -24 q 188 -15 210 -24 q 139 7 165 -7 q 104 21 114 21 q 88 -24 88 21 l 60 -24 l 60 179 l 88 179 q 129 74 88 125 q 240 24 171 24 q 296 44 274 24 q 318 94 318 65 q 299 140 318 119 q 240 179 279 160 l 164 221 q 94 284 117 246 q 71 360 71 322 q 113 450 71 414 q 213 486 156 486 q 267 479 244 486 q 310 461 289 472 q 328 454 324 454 q 338 486 338 454 l 367 486 l 367 325 l 338 325 q 307 407 338 372 q 225 442 276 442 q 154 382 154 442 q 172 341 154 358 q 239 297 190 324 l 306 261 q 376 200 351 235 q 401 128 401 165 "},"t":{"ha":410,"x_min":39,"x_max":386,"o":"m 111 414 l 39 414 l 39 447 q 126 501 99 460 q 163 615 154 543 l 210 615 l 210 463 l 331 463 l 331 414 l 210 414 l 210 133 q 272 32 210 32 q 363 81 311 32 l 386 57 q 316 -1 357 21 q 240 -24 275 -24 q 146 15 181 -24 q 111 133 111 54 l 111 414 "},"u":{"ha":725,"x_min":26,"x_max":699,"o":"m 699 11 l 513 -24 q 501 15 508 -14 q 490 65 494 43 q 410 3 457 31 q 308 -24 363 -24 q 177 33 218 -24 q 136 185 136 89 l 136 272 q 132 358 136 328 q 117 406 128 389 q 85 428 106 422 q 26 435 64 435 l 26 463 l 235 463 l 235 192 q 260 82 235 121 q 340 43 286 43 q 388 53 361 43 q 437 81 414 63 q 475 124 460 99 q 490 181 490 150 l 490 272 q 485 358 490 326 q 469 406 481 389 q 438 428 458 422 q 379 435 417 435 l 379 463 l 588 463 l 588 203 q 592 117 588 149 q 608 69 597 86 q 640 47 619 53 q 699 40 661 40 l 699 11 "},"v":{"ha":506,"x_min":-25,"x_max":524,"o":"m 524 435 q 466 417 488 435 q 425 353 444 399 l 268 -25 l 240 -25 l 71 353 q 31 417 51 399 q -25 435 10 435 l -25 463 l 222 463 l 222 435 q 163 406 163 435 q 178 353 163 389 l 276 131 l 369 353 q 383 404 383 388 q 329 435 383 435 l 329 463 l 524 463 l 524 435 "},"w":{"ha":761,"x_min":-28,"x_max":782,"o":"m 378 296 l 258 -25 l 231 -25 l 67 353 q 26 417 47 399 q -28 435 4 435 l -28 463 l 224 463 l 224 435 q 163 394 163 435 q 174 353 163 378 l 268 136 l 381 463 l 411 463 l 553 136 l 628 353 q 638 396 638 379 q 588 435 638 435 l 588 463 l 782 463 l 782 435 q 723 417 746 435 q 683 353 700 399 l 543 -25 l 515 -25 l 378 296 "},"x":{"ha":560,"x_min":3,"x_max":560,"o":"m 257 183 l 188 110 q 154 57 154 76 q 217 29 154 29 l 217 0 l 3 0 l 3 29 q 52 47 25 29 q 124 110 79 65 l 229 221 l 133 353 q 71 418 96 401 q 11 435 46 435 l 11 463 l 292 463 l 292 435 q 222 410 222 435 q 251 353 222 392 l 296 292 l 354 353 q 383 403 383 382 q 325 435 383 435 l 325 463 l 551 463 l 551 435 q 491 415 522 435 q 418 353 460 396 l 324 254 l 428 110 q 488 47 460 64 q 560 29 517 29 l 560 0 l 268 0 l 268 29 q 333 58 333 29 q 310 110 333 76 l 257 183 "},"y":{"ha":518,"x_min":-26,"x_max":519,"o":"m 53 -329 q 60 -301 53 -312 q 86 -272 68 -289 q 126 -226 110 -249 q 157 -167 143 -204 l 226 7 l 67 353 q 26 417 46 400 q -26 435 7 435 l -26 463 l 219 463 l 219 435 q 158 406 158 435 q 175 353 158 388 l 276 131 l 365 353 q 379 403 379 386 q 325 435 379 435 l 325 463 l 519 463 l 519 435 q 463 416 486 435 q 421 353 439 397 l 150 -324 q 128 -360 142 -346 q 99 -375 114 -375 q 67 -364 81 -375 q 53 -329 53 -353 "},"z":{"ha":504,"x_min":46,"x_max":460,"o":"m 444 463 l 444 440 l 179 44 l 264 44 q 383 62 354 44 q 424 126 411 79 l 431 154 l 460 154 l 449 0 l 46 0 l 46 24 l 311 419 l 246 419 q 128 402 157 419 q 86 338 99 385 l 79 310 l 50 310 l 60 463 l 444 463 "},"{":{"ha":497,"x_min":58,"x_max":461,"o":"m 58 422 l 63 424 q 120 447 99 436 q 158 482 142 458 q 183 549 174 506 q 192 664 192 593 q 208 772 192 726 q 253 851 225 818 q 316 906 282 883 q 403 957 350 928 q 438 976 435 975 l 461 947 q 385 890 414 914 q 334 838 356 867 q 301 767 313 808 q 289 667 289 725 q 281 547 289 593 q 255 474 272 500 q 212 434 238 447 q 144 411 186 421 q 212 388 186 401 q 255 349 238 375 q 281 276 272 324 q 289 156 289 229 q 301 56 289 97 q 334 -15 313 15 q 385 -69 356 -46 q 461 -125 414 -92 l 438 -154 q 401 -133 432 -150 q 315 -82 349 -104 q 253 -28 282 -60 q 208 50 225 4 q 192 158 192 96 q 183 273 192 229 q 157 340 174 317 q 119 375 140 364 q 63 399 99 386 l 58 400 l 58 422 "},"|":{"ha":375,"x_min":160,"x_max":221,"o":"m 160 983 l 221 983 l 221 0 l 160 0 l 160 983 "},"}":{"ha":497,"x_min":38,"x_max":440,"o":"m 440 400 l 438 399 q 378 375 400 386 q 341 341 357 364 q 316 274 325 318 q 307 158 307 231 q 290 49 307 96 q 245 -29 274 3 q 183 -83 217 -61 q 96 -135 150 -104 q 60 -154 75 -146 l 38 -125 q 115 -69 86 -92 q 164 -16 143 -46 q 197 56 185 14 q 208 156 208 97 q 217 276 208 229 q 243 349 225 322 q 286 388 261 375 q 353 411 311 401 q 285 434 311 421 q 242 474 260 447 q 217 547 225 500 q 208 667 208 593 q 197 767 208 725 q 164 838 185 808 q 115 891 143 868 q 38 947 86 914 l 60 976 q 94 957 71 969 q 182 905 149 926 q 244 851 215 883 q 290 774 274 819 q 307 664 307 728 q 316 549 307 592 q 341 482 325 506 q 378 447 357 458 q 438 424 400 436 l 440 422 l 440 400 "},"£":{"ha":713,"x_min":53,"x_max":704,"o":"m 185 414 l 72 414 l 72 463 l 185 463 l 185 596 q 203 714 185 664 q 255 796 222 764 q 328 842 288 828 q 414 857 369 857 q 515 824 478 857 q 551 751 551 790 q 506 704 551 704 q 476 716 485 704 q 457 751 467 728 q 433 796 446 781 q 388 811 419 811 q 308 762 333 811 q 283 596 283 713 l 283 463 l 424 463 l 424 414 l 283 414 l 283 213 q 288 127 283 158 q 307 80 293 96 q 346 58 321 64 q 417 51 371 51 l 507 51 q 624 74 596 51 q 668 157 653 96 l 675 185 l 704 185 l 692 0 l 53 0 l 53 29 q 124 35 99 29 q 162 58 149 42 q 180 106 175 75 q 185 192 185 136 l 185 414 "}}}
